<svg width="500" height="350" viewBox="0 0 500 350" fill="none" xmlns="http://www.w3.org/2000/svg">
<g clip-path="url(#clip0_3253_2018)">
<path d="M37.7369 187.958L1.13647 293.367L157.532 347.664L194.132 242.255L37.7369 187.958Z" fill="#E6EFF4"/>
<path d="M194.125 242.268C194.143 242.316 193.473 242.623 192.181 243.166C190.749 243.747 188.861 244.512 186.503 245.468C181.394 247.467 174.258 250.259 165.499 253.687C147.568 260.547 123.022 269.938 95.8356 280.34L95.2617 280.56L94.9326 280.039C94.6818 279.642 94.4096 279.211 94.1373 278.779C78.4944 253.825 64.3385 231.242 53.9875 214.731C48.976 206.601 44.8908 199.975 41.9666 195.229C40.635 193.009 39.5695 191.233 38.763 189.887C38.0449 188.657 37.6884 187.997 37.7321 187.97C37.7758 187.942 38.2176 188.548 39.019 189.726C39.8864 191.034 41.0311 192.759 42.4612 194.918C45.484 199.6 49.7063 206.14 54.8864 214.164C65.3329 230.614 79.6198 253.115 95.408 277.978C95.6802 278.41 95.9514 278.84 96.2023 279.237L95.3013 278.936C122.55 268.697 147.15 259.454 165.122 252.701C173.952 249.459 181.145 246.818 186.294 244.927C188.695 244.079 190.615 243.4 192.073 242.885C193.401 242.433 194.106 242.219 194.125 242.268Z" fill="#CCCCCC"/>
<path d="M1.13212 293.375C0.919837 293.018 17.6983 282.653 38.6015 270.226C59.5129 257.794 76.6306 248.009 76.8429 248.367C77.0552 248.723 60.2808 259.087 39.3704 271.517C18.4662 283.945 1.3444 293.732 1.13212 293.375Z" fill="#CCCCCC"/>
<path d="M129.285 265.097C129.678 264.963 136.317 283.341 144.114 306.141C151.914 328.948 157.916 347.539 157.522 347.674C157.129 347.808 150.491 329.434 142.692 306.627C134.896 283.828 128.893 265.231 129.285 265.097Z" fill="#CCCCCC"/>
<path d="M481.211 170.558L326.471 196.784L344.149 301.077L498.889 274.852L481.211 170.558Z" fill="#E6EFF4"/>
<path d="M481.233 170.597C481.27 170.628 480.854 171.19 480.027 172.229C479.102 173.365 477.882 174.862 476.358 176.733C473.024 180.726 468.368 186.3 462.652 193.146C450.88 207.028 434.766 226.03 416.917 247.077L416.54 247.52L416.029 247.237C415.639 247.022 415.217 246.787 414.794 246.553C390.408 232.95 368.34 220.64 352.204 211.64C344.331 207.17 337.912 203.526 333.316 200.917C331.196 199.679 329.501 198.688 328.216 197.939C327.058 197.244 326.461 196.858 326.485 196.815C326.508 196.773 327.152 197.074 328.355 197.688C329.673 198.38 331.412 199.292 333.585 200.432C338.234 202.945 344.727 206.454 352.693 210.759C368.88 219.665 391.02 231.847 415.485 245.307C415.907 245.542 416.33 245.775 416.72 245.992L415.833 246.152C433.807 225.213 450.035 206.308 461.89 192.497C467.749 185.774 472.522 180.298 475.94 176.378C477.548 174.578 478.835 173.138 479.811 172.045C480.706 171.065 481.195 170.565 481.233 170.597Z" fill="#CCCCCC"/>
<path d="M344.158 301.115C343.819 300.915 353.033 284.646 364.735 264.782C376.442 244.911 386.204 228.971 386.543 229.17C386.881 229.369 377.67 245.634 365.963 265.505C354.261 285.369 344.497 301.314 344.158 301.115Z" fill="#CCCCCC"/>
<path d="M437.762 219.15C438.027 218.86 451.931 231.104 468.812 246.495C485.7 261.892 499.17 274.605 498.905 274.896C498.64 275.186 484.739 262.945 467.852 247.548C450.971 232.156 437.497 219.441 437.762 219.15Z" fill="#CCCCCC"/>
<path d="M330.498 4.75366L302.627 75.6338L407.793 116.981L435.664 46.1009L330.498 4.75366Z" fill="#E6EFF4"/>
<path d="M435.694 47.0687C435.705 47.1022 435.239 47.2931 434.344 47.6273C433.351 47.9838 432.042 48.454 430.407 49.0411C426.867 50.2639 421.923 51.9712 415.854 54.0675C403.434 58.2519 386.434 63.9802 367.604 70.3239L367.206 70.4579L366.996 70.0933C366.836 69.815 366.663 69.5144 366.489 69.2127C356.509 51.7599 347.476 35.9667 340.873 24.4189C337.68 18.7353 335.077 14.103 333.213 10.7859C332.366 9.235 331.688 7.99388 331.175 7.0534C330.719 6.19416 330.495 5.7351 330.525 5.71681C330.556 5.69955 330.84 6.12408 331.354 6.9498C331.91 7.86591 332.642 9.07453 333.559 10.5858C335.492 13.8633 338.191 18.4398 341.503 24.0563C348.174 35.5645 357.297 51.306 367.38 68.6998C367.554 69.0015 367.728 69.3031 367.887 69.5804L367.281 69.3499C386.148 63.1189 403.183 57.4932 415.627 53.3829C421.74 51.4156 426.718 49.813 430.283 48.6653C431.944 48.1534 433.272 47.7431 434.281 47.4323C435.196 47.1621 435.682 47.0362 435.694 47.0687Z" fill="#CCCCCC"/>
<path d="M302.65 76.6022C302.515 76.3534 314.244 69.7456 328.845 61.847C343.451 53.9453 355.397 47.7438 355.532 47.9936C355.667 48.2425 343.94 54.8482 329.334 62.7499C314.733 70.6485 302.784 76.8511 302.65 76.6022Z" fill="#CCCCCC"/>
<path d="M390.839 60.851C391.11 60.7707 395.132 73.4886 399.821 89.2544C404.51 105.025 408.091 117.872 407.819 117.952C407.548 118.033 403.527 105.318 398.836 89.5459C394.149 73.7811 390.567 60.9322 390.839 60.851Z" fill="#CCCCCC"/>
<path d="M125.814 175.353L365.389 173.613L372.067 336.483L123.996 334.184L125.814 175.353Z" fill="#35586E"/>
<path d="M125.814 175.353L239.199 83.6127C244 79.7279 250.869 79.7502 255.646 83.6645L365.39 173.613" fill="#353739"/>
<path d="M123.996 334.184C123.698 333.904 142.877 312.964 166.83 287.42C190.791 261.867 210.45 241.386 210.75 241.666C211.049 241.946 191.873 262.882 167.912 288.434C143.959 313.979 124.295 334.464 123.996 334.184Z" fill="#263238"/>
<path d="M372.068 336.483C371.761 336.755 353.083 316.24 330.353 290.665C307.616 265.081 289.439 244.128 289.746 243.856C290.051 243.584 308.726 264.096 331.464 289.679C354.192 315.253 372.373 336.211 372.068 336.483Z" fill="#263238"/>
<g opacity="0.5">
<path d="M365.389 173.613L245.088 269.711L125.814 175.353" fill="#35586E"/>
</g>
<path d="M137.879 184.252L137.505 109.431L347.285 106.951L349.649 185.675L245.076 268.454L137.879 184.252Z" fill="#FAFAFA"/>
<path d="M137.879 184.252C137.879 184.252 138.557 184.759 139.846 185.759C141.138 186.765 143.046 188.251 145.537 190.192C150.521 194.09 157.836 199.81 167.185 207.123C185.865 221.765 212.673 242.779 245.209 268.283L244.941 268.284C275.065 244.421 310.809 216.107 349.486 185.47L349.387 185.684C348.935 170.664 348.46 154.91 347.978 138.876C347.654 128.084 347.334 117.417 347.021 106.96L347.287 107.215C262.749 108.177 188.173 109.025 137.507 109.602L137.675 109.431C137.757 132.973 137.822 151.665 137.867 164.481C137.88 170.888 137.89 175.825 137.896 179.168C137.895 180.834 137.894 182.101 137.893 182.96C137.891 183.812 137.879 184.252 137.879 184.252C137.879 184.252 137.863 183.826 137.85 182.98C137.841 182.125 137.828 180.863 137.81 179.207C137.783 175.869 137.744 170.939 137.693 164.542C137.61 151.713 137.488 133 137.335 109.433L137.333 109.265L137.502 109.263C188.168 108.641 262.743 107.726 347.28 106.689L347.538 106.686L347.546 106.945C347.861 117.401 348.181 128.067 348.506 138.861C348.986 154.895 349.459 170.649 349.909 185.668L349.913 185.801L349.809 185.882C311.112 216.493 275.349 244.783 245.209 268.625L245.075 268.732L244.941 268.626C212.429 243.036 185.642 221.952 166.976 207.26C157.667 199.916 150.384 194.17 145.422 190.255C142.954 188.301 141.065 186.805 139.786 185.791C138.518 184.779 137.879 184.252 137.879 184.252Z" fill="#263238"/>
<path d="M314.132 144.622C314.133 144.769 282.05 145.081 242.484 145.322C202.902 145.563 170.826 145.639 170.825 145.493C170.824 145.347 202.899 145.034 242.481 144.793C282.047 144.553 314.131 144.476 314.132 144.622Z" fill="#A5E1D3"/>
<path d="M314.132 165.757C314.133 165.903 282.05 166.216 242.484 166.457C202.902 166.697 170.826 166.774 170.825 166.627C170.824 166.481 202.899 166.168 242.481 165.928C282.047 165.687 314.131 165.611 314.132 165.757Z" fill="#A5E1D3"/>
<path d="M314.132 190.116C314.133 190.262 282.05 190.575 242.484 190.816C202.902 191.055 170.826 191.132 170.825 190.986C170.824 190.84 202.899 190.527 242.481 190.286C282.047 190.046 314.131 189.97 314.132 190.116Z" fill="#A5E1D3"/>
<path d="M314.132 214.474C314.133 214.62 283.525 214.924 245.777 215.154C208.016 215.383 177.413 215.45 177.412 215.304C177.411 215.158 208.013 214.854 245.773 214.624C283.521 214.396 314.131 214.329 314.132 214.474Z" fill="#A5E1D3"/>
<path d="M287.3 235.855C287.3 235.874 287.01 235.893 286.46 235.914C285.86 235.931 285.058 235.953 284.05 235.979C281.904 236.015 278.89 236.065 275.187 236.126C267.658 236.233 257.343 236.382 245.948 236.545C234.525 236.736 224.184 236.8 216.699 236.809C212.996 236.8 209.981 236.793 207.835 236.788C206.826 236.774 206.024 236.762 205.424 236.754C204.874 236.741 204.584 236.725 204.584 236.707C204.584 236.688 204.874 236.669 205.424 236.648C206.024 236.631 206.826 236.609 207.834 236.583C209.98 236.547 212.994 236.497 216.696 236.436C224.225 236.329 234.541 236.18 245.94 236.017C257.359 235.826 267.7 235.762 275.184 235.753C278.888 235.762 281.902 235.769 284.048 235.774C285.057 235.788 285.859 235.8 286.459 235.808C287.01 235.821 287.3 235.837 287.3 235.855Z" fill="#A5E1D3"/>
<path d="M260.294 256.407C260.294 256.553 253.453 256.671 245.018 256.671C236.578 256.671 229.74 256.552 229.74 256.407C229.74 256.261 236.578 256.143 245.018 256.143C253.453 256.142 260.294 256.261 260.294 256.407Z" fill="#A5E1D3"/>
<path d="M330 243C346.016 243 359 230.016 359 214C359 197.984 346.016 185 330 185C313.984 185 301 197.984 301 214C301 230.016 313.984 243 330 243Z" fill="#5987A4"/>
<path d="M326.807 236.062C340.801 236.062 352.146 224.718 352.146 210.724C352.146 196.73 340.801 185.386 326.807 185.386C312.812 185.386 301.467 196.73 301.467 210.724C301.467 224.718 312.812 236.062 326.807 236.062Z" fill="#A5E1D3"/>
</g>
<defs>
<clipPath id="clip0_3253_2018">
<rect width="500" height="350" fill="white"/>
</clipPath>
</defs>
</svg>
